
		<svg xmlns="http://www.w3.org/2000/svg" xmlns:xlink="http://www.w3.org/1999/xlink" version="1.1" width="3165.709227706737" height="1135.1082097911458">
			<rect fill="#fff" width="3165.709227706737" height="1135.1082097911458"/>
			<g transform="scale(8.28546138533683) translate(10, 10)">
				<defs id="SvgjsDefs1077"></defs><g id="SvgjsG1078" featureKey="root" fill="#ffffff" transform="matrix(1,0,0,1,0,0)"></g><g id="SvgjsG1079" featureKey="symbol1" fill="#c0c0c0" transform="matrix(1.5,0,0,1.5,15,-19.5)"><path d="M39,47c0-1.104,0.896-2,2-2h55V25c0-1.104-0.896-2-2-2H2c-1.104,0-2,0.896-2,2v50c0,1.104,0.896,2,2,2h37V47z"></path><path d="M83.5,55c0-1.104,0.896-2,2-2h12.444v-4.814c0-0.655-0.53-1.186-1.186-1.186H42.241c-0.655,0-1.185,0.53-1.185,1.186v29.629  c0,0.655,0.53,1.186,1.185,1.186H83.5V55z"></path><path d="M100,80c0,0.553-0.447,1-1,1H86.5c-0.553,0-1-0.447-1-1V56c0-0.553,0.447-1,1-1H99c0.553,0,1,0.447,1,1V80z"></path></g><g id="SvgjsG1080" featureKey="text1" fill="#00aeef" transform="matrix(2.010600930304345,0,0,2.010600930304345,178.87406311471247,10.950101196482287)"><path d="M9.3 14.6 q-0.84 2.68 -1.7 4.96 t-1.72 4.44 l-1.94 0 q-1.06 -3.06 -1.87 -6.46 t-1.51 -7.4 l2.04 0 q0.28 1.56 0.58 3.12 t0.62 3.03 t0.64 2.81 t0.66 2.48 q0.8 -2.1 1.7 -4.61 t1.68 -5.19 l1.68 0 q0.78 2.68 1.7 5.19 t1.72 4.61 q0.32 -1.12 0.64 -2.46 t0.63 -2.81 t0.61 -3.04 t0.58 -3.13 l1.98 0 q-0.72 4 -1.53 7.4 t-1.85 6.46 l-1.94 0 q-0.88 -2.16 -1.72 -4.44 t-1.68 -4.96 z M19.6 18.82 q0 -1.38 0.4 -2.41 t1.06 -1.71 t1.52 -1.02 t1.76 -0.34 q2.1 0 3.22 1.31 t1.12 3.99 l0 0.31 t-0.02 0.35 l-7.12 0 q0.12 1.62 0.94 2.46 t2.56 0.84 q0.98 0 1.65 -0.17 t1.01 -0.33 l0.26 1.56 q-0.34 0.18 -1.19 0.38 t-1.93 0.2 q-1.36 0 -2.35 -0.41 t-1.63 -1.13 t-0.95 -1.71 t-0.31 -2.17 z M26.740000000000002 17.8 q0.02 -1.26 -0.63 -2.07 t-1.79 -0.81 q-0.64 0 -1.13 0.25 t-0.83 0.65 t-0.53 0.92 t-0.25 1.06 l5.16 0 z M33.22 14.06 q0.34 -0.22 1.03 -0.46 t1.59 -0.24 q1.12 0 1.99 0.4 t1.47 1.12 t0.91 1.72 t0.31 2.2 q0 1.26 -0.37 2.27 t-1.05 1.71 t-1.64 1.08 t-2.16 0.38 q-1.3 0 -2.3 -0.18 t-1.64 -0.36 l0 -14.9 l1.86 -0.32 l0 5.58 z M33.22 22.38 q0.28 0.08 0.79 0.15 t1.27 0.07 q1.5 0 2.4 -0.99 t0.9 -2.81 q0 -0.8 -0.16 -1.5 t-0.52 -1.21 t-0.93 -0.8 t-1.37 -0.29 q-0.76 0 -1.4 0.26 t-0.98 0.54 l0 6.58 z  M57.14 24 q-0.34 -0.9 -0.64 -1.77 t-0.62 -1.77 l-6.28 0 l-1.26 3.54 l-2.02 0 q0.8 -2.2 1.5 -4.07 t1.37 -3.55 t1.33 -3.21 t1.38 -3.03 l1.78 0 q0.72 1.5 1.38 3.03 t1.33 3.21 t1.37 3.55 t1.5 4.07 l-2.12 0 z M55.31999999999999 18.86 q-0.64 -1.74 -1.27 -3.37 t-1.31 -3.13 q-0.7 1.5 -1.33 3.13 t-1.25 3.37 l5.16 0 z M68.24 18.82 q0 -1.82 -0.9 -2.8 t-2.4 -0.98 q-0.84 0 -1.31 0.06 t-0.75 0.14 l0 6.56 q0.34 0.28 0.98 0.54 t1.4 0.26 q0.8 0 1.37 -0.29 t0.93 -0.8 t0.52 -1.2 t0.16 -1.49 z M70.17999999999999 18.82 q0 1.18 -0.31 2.18 t-0.91 1.72 t-1.47 1.12 t-1.99 0.4 q-0.9 0 -1.59 -0.24 t-1.03 -0.46 l0 4.16 l-1.86 0 l0 -13.78 q0.66 -0.16 1.65 -0.35 t2.29 -0.19 q1.2 0 2.16 0.38 t1.64 1.08 t1.05 1.71 t0.37 2.27 z M80.01999999999998 18.82 q0 -1.82 -0.9 -2.8 t-2.4 -0.98 q-0.84 0 -1.31 0.06 t-0.75 0.14 l0 6.56 q0.34 0.28 0.98 0.54 t1.4 0.26 q0.8 0 1.37 -0.29 t0.93 -0.8 t0.52 -1.2 t0.16 -1.49 z M81.96 18.82 q0 1.18 -0.31 2.18 t-0.91 1.72 t-1.47 1.12 t-1.99 0.4 q-0.9 0 -1.59 -0.24 t-1.03 -0.46 l0 4.16 l-1.86 0 l0 -13.78 q0.66 -0.16 1.65 -0.35 t2.29 -0.19 q1.2 0 2.16 0.38 t1.64 1.08 t1.05 1.71 t0.37 2.27 z M86.99999999999999 22.66 q1.14 0 1.69 -0.3 t0.55 -0.96 q0 -0.68 -0.54 -1.08 t-1.78 -0.9 q-0.6 -0.24 -1.15 -0.49 t-0.95 -0.59 t-0.64 -0.82 t-0.24 -1.18 q0 -1.38 1.02 -2.19 t2.78 -0.81 q0.44 0 0.88 0.05 t0.82 0.12 t0.67 0.15 t0.45 0.14 l-0.34 1.6 q-0.3 -0.16 -0.94 -0.33 t-1.54 -0.17 q-0.78 0 -1.36 0.31 t-0.58 0.97 q0 0.34 0.13 0.6 t0.4 0.47 t0.67 0.39 t0.96 0.38 q0.74 0.28 1.32 0.55 t0.99 0.63 t0.63 0.87 t0.22 1.25 q0 1.44 -1.07 2.18 t-3.05 0.74 q-1.38 0 -2.16 -0.23 t-1.06 -0.35 l0.34 -1.6 q0.32 0.12 1.02 0.36 t1.86 0.24 z"></path></g><g id="SvgjsG1081" featureKey="text3" fill="#8b8b8b" transform="matrix(0.7415861574004783,0,0,0.7415861574004783,204.2584138425995,78.72218806686385)"><path d="M12.7 16.060000000000002 l1.46 1.46 c-1.38 1.52 -3.36 2.28 -5.54 2.28 c-4.22 0 -7.62 -3.34 -7.62 -7.7 c0 -4.34 3.4 -7.68 7.62 -7.68 c2.18 0 4.16 0.76 5.56 2.3 l-1.46 1.46 c-0.88 -1.28 -2.48 -1.92 -4.1 -1.92 c-3.1 0 -5.4 2.76 -5.4 5.84 c0 2.82 2.08 5.86 5.4 5.86 c1.44 0 3.28 -0.56 4.08 -1.9 z M25.92 13.900000000000002 l0 5.7 l-2.06 0 l0 -5.5 c0 -2 -0.62 -2.88 -2.32 -2.88 c-1.92 0 -2.7 1.34 -2.7 3.08 l0 5.3 l-2.06 0 l0 -15 l2.06 0 l0 6.72 c0.28 -0.88 1.52 -1.68 2.7 -1.76 c2.68 -0.2 4.38 1.1 4.38 4.34 z M34.46 9.840000000000002 l-0.44 1.62 c-0.14 -0.08 -0.58 -0.22 -0.94 -0.22 c-1.7 0 -2.5 1.62 -2.5 3.62 l0 4.74 l-2.06 0 l0 -9.88 l2.06 0 l0 1.4 c0.24 -0.92 1.3 -1.58 2.48 -1.58 c0.54 0 1.12 0.14 1.4 0.3 z M38.02 9.72 l0 9.88 l-2.06 0 l0 -9.88 l2.06 0 z M38.120000000000005 6.100000000000001 c0 0.64 -0.5 1.14 -1.14 1.14 c-0.62 0 -1.12 -0.5 -1.12 -1.14 c0 -0.62 0.5 -1.12 1.12 -1.12 c0.64 0 1.14 0.5 1.14 1.12 z M47.86 15.760000000000002 c0.04 0.12 0.38 1.1 -0.04 2.1 c-0.52 1.18 -1.9 1.94 -3.62 1.94 l-0.02 0 c-1.38 0 -2.64 -0.58 -3.58 -1.5 l1.34 -1.34 c0.56 0.72 1.36 1.08 2.24 1.08 c0.98 0 1.8 -0.36 2.02 -0.88 c0.14 -0.36 0.02 -0.74 0.02 -0.78 c-0.24 -0.6 -1.12 -0.72 -2.12 -0.94 c-1.34 -0.3 -2.68 -0.64 -3.2 -2.04 c-0.26 -0.72 -0.18 -1.56 0.18 -2.26 c0.82 -1.54 2.86 -1.6 3.1 -1.6 c1.38 0 2.68 0.52 3.6 1.46 l-1.34 1.34 c-0.56 -0.72 -1.38 -1.04 -2.26 -1.04 c-0.02 0 -1.2 0.02 -1.54 0.68 c-0.12 0.2 -0.18 0.54 -0.08 0.82 c0.2 0.56 1.1 0.74 2.06 0.96 c1.3 0.3 2.72 0.6 3.24 2 z M59.559999999999995 11.180000000000001 c1.18 0.82 1.96 2.22 1.96 3.82 c0 2.54 -2 4.6 -4.46 4.6 l-5.94 0 l0 -15 l5.94 0 c2.02 0 3.64 1.72 3.64 3.8 c0 1.08 -0.44 2.08 -1.14 2.78 z M53.339999999999996 6.440000000000001 l0 3.96 l3.72 0 l0.06 0 c0.76 -0.06 1.36 -0.96 1.36 -2 c0 -1.06 -0.64 -1.96 -1.42 -1.96 l-3.72 0 z M57.059999999999995 17.76 c1.24 0 2.24 -1.24 2.24 -2.76 c0 -1.48 -0.96 -2.7 -2.14 -2.76 l-0.1 0 l-3.72 0 l0 5.52 l3.72 0 z M73.64 14.680000000000001 l0 0.74 l-7.78 0 c0 1.82 1.74 2.7 3.02 2.7 c0.94 0 1.98 -0.5 2.54 -1.3 l1.42 1.28 c-0.66 0.9 -1.74 1.7 -3.96 1.7 c-3.2 0 -5.16 -2.18 -5.16 -5.12 s1.9 -5.14 4.96 -5.14 s4.46 1.7 4.88 4.18 c0.06 0.32 0.08 0.64 0.08 0.96 z M65.89999999999999 13.720000000000002 l5.58 0 c0 -1.6 -1.28 -2.48 -2.8 -2.48 s-2.78 1.02 -2.78 2.48 z M84.52 13.900000000000002 l0 5.7 l-2.08 0 l0.02 -0.08 l0 -5.42 c0 -2 -0.52 -2.88 -2.22 -2.88 c-1.92 0 -2.6 1.34 -2.6 3.08 l0 5.3 l-2.06 0 l0 -9.88 l2.06 0 l0 1.6 c0.28 -0.88 1.42 -1.68 2.6 -1.76 c1.94 -0.14 3.32 0.5 3.94 2.1 c0.42 -1.36 1.76 -2.02 2.92 -2.1 c2.68 -0.2 4.28 1.1 4.28 4.34 l0 5.7 l-2.06 0 l0 -5.5 c0 -2 -0.52 -2.88 -2.22 -2.88 c-1.72 0 -2.44 1.08 -2.58 2.68 z M96.02 9.72 l0 9.88 l-2.06 0 l0 -9.88 l2.06 0 z M96.11999999999999 6.100000000000001 c0 0.64 -0.5 1.14 -1.14 1.14 c-0.62 0 -1.12 -0.5 -1.12 -1.14 c0 -0.62 0.5 -1.12 1.12 -1.12 c0.64 0 1.14 0.5 1.14 1.12 z M105.86 15.760000000000002 c0.04 0.12 0.38 1.1 -0.04 2.1 c-0.52 1.18 -1.9 1.94 -3.62 1.94 l-0.02 0 c-1.38 0 -2.64 -0.58 -3.58 -1.5 l1.34 -1.34 c0.56 0.72 1.36 1.08 2.24 1.08 c0.98 0 1.8 -0.36 2.02 -0.88 c0.14 -0.36 0.02 -0.74 0.02 -0.78 c-0.24 -0.6 -1.12 -0.72 -2.12 -0.94 c-1.34 -0.3 -2.68 -0.64 -3.2 -2.04 c-0.26 -0.72 -0.18 -1.56 0.18 -2.26 c0.82 -1.54 2.86 -1.6 3.1 -1.6 c1.38 0 2.68 0.52 3.6 1.46 l-1.34 1.34 c-0.56 -0.72 -1.38 -1.04 -2.26 -1.04 c-0.02 0 -1.2 0.02 -1.54 0.68 c-0.12 0.2 -0.18 0.54 -0.08 0.82 c0.2 0.56 1.1 0.74 2.06 0.96 c1.3 0.3 2.72 0.6 3.24 2 z M112.12 17.96 c0.64 0.26 1.14 0.08 1.44 -0.06 l0 1.6 c-0.26 0.16 -0.64 0.3 -1.18 0.3 c-1.18 0 -2.22 -0.38 -2.86 -1.42 c-0.6 -1 -0.6 -1.54 -0.6 -3.1 l0 -3.88 l-1.2 0 l0 -1.68 l1.2 0 l0 -3.12 l2.06 0 l0 3.12 l2.58 0 l0 1.68 l-2.58 0 l0 3.88 c0 1.64 0.16 2.24 1.14 2.68 z M125.28 14.680000000000001 l0 0.74 l-7.78 0 c0 1.82 1.74 2.7 3.02 2.7 c0.94 0 1.98 -0.5 2.54 -1.3 l1.42 1.28 c-0.66 0.9 -1.74 1.7 -3.96 1.7 c-3.2 0 -5.16 -2.18 -5.16 -5.12 s1.9 -5.14 4.96 -5.14 s4.46 1.7 4.88 4.18 c0.06 0.32 0.08 0.64 0.08 0.96 z M117.54 13.720000000000002 l5.58 0 c0 -1.6 -1.28 -2.48 -2.8 -2.48 s-2.78 1.02 -2.78 2.48 z M133.22 9.840000000000002 l-0.44 1.62 c-0.14 -0.08 -0.58 -0.22 -0.94 -0.22 c-1.7 0 -2.5 1.62 -2.5 3.62 l0 4.74 l-2.06 0 l0 -9.88 l2.06 0 l0 1.4 c0.24 -0.92 1.3 -1.58 2.48 -1.58 c0.54 0 1.12 0.14 1.4 0.3 z M137.24000000000004 18.380000000000003 c0 0.8 -0.62 1.42 -1.42 1.42 c-0.78 0 -1.4 -0.62 -1.4 -1.42 c0 -0.76 0.62 -1.38 1.4 -1.38 c0.8 0 1.42 0.62 1.42 1.38 z M146.54000000000002 17.020000000000003 l1.42 1.28 c-0.94 1.04 -2.28 1.5 -3.78 1.5 c-2.84 0 -5.14 -2.18 -5.14 -5.12 s2.3 -5.14 5.14 -5.14 c1.5 0 2.84 0.46 3.78 1.5 l-1.42 1.28 c-0.58 -0.78 -1.42 -1.08 -2.36 -1.08 c-1.7 0 -3.08 1.42 -3.08 3.44 c0 2 1.38 3.44 3.08 3.44 c0.94 0 1.78 -0.3 2.36 -1.1 z M154.70000000000002 11.240000000000002 c-1.7 0 -3.08 1.42 -3.08 3.44 c0 2 1.38 3.44 3.08 3.44 s3.08 -1.44 3.08 -3.44 c0 -2.02 -1.38 -3.44 -3.08 -3.44 z M154.70000000000002 9.540000000000001 c2.84 0 5.14 2.2 5.14 5.14 s-2.3 5.12 -5.14 5.12 s-5.14 -2.18 -5.14 -5.12 s2.3 -5.14 5.14 -5.14 z M170.92000000000004 13.900000000000002 l0 5.7 l-2.08 0 l0.02 -0.08 l0 -5.42 c0 -2 -0.52 -2.88 -2.22 -2.88 c-1.92 0 -2.6 1.34 -2.6 3.08 l0 5.3 l-2.06 0 l0 -9.88 l2.06 0 l0 1.6 c0.28 -0.88 1.42 -1.68 2.6 -1.76 c1.94 -0.14 3.32 0.5 3.94 2.1 c0.42 -1.36 1.76 -2.02 2.92 -2.1 c2.68 -0.2 4.28 1.1 4.28 4.34 l0 5.7 l-2.06 0 l0 -5.5 c0 -2 -0.52 -2.88 -2.22 -2.88 c-1.72 0 -2.44 1.08 -2.58 2.68 z"></path></g>
			</g>
		</svg>
	