
		<svg xmlns="http://www.w3.org/2000/svg" xmlns:xlink="http://www.w3.org/1999/xlink" version="1.1" width="3184.0490797546013" height="1444.7852760736198">
			
			<g transform="scale(9.202453987730062) translate(10, 10)">
				<defs id="SvgjsDefs1024"></defs><g id="SvgjsG1025" featureKey="root" fill="#ffffff"></g><g id="SvgjsG1026" featureKey="container1" fill="#00aeef" transform="matrix(1.05,0,0,1.05,0,0)"><rect xmlns="http://www.w3.org/2000/svg" width="310" rx="10" ry="10" height="130"></rect></g><g id="SvgjsG1027" featureKey="symbol1" fill="#ffffff" transform="matrix(1.1627906829378922,0,0,1.1627906829378922,25.674418634124216,38.674418634124216)"><g xmlns="http://www.w3.org/2000/svg" class="st0" style="display: none;"><g class="st1" style="display: inline;"><rect x="2" y="2" class="st2" width="60" height="60" style="fill: none; stroke: #ffffff; stroke-width: 0.1; stroke-miterlimit: 10;"></rect><line class="st2" x1="32" y1="2" x2="32" y2="62" style="fill: none; stroke: #ffffff; stroke-width: 0.1; stroke-miterlimit: 10;"></line><line class="st2" x1="62" y1="32" x2="2" y2="32" style="fill: none; stroke: #ffffff; stroke-width: 0.1; stroke-miterlimit: 10;"></line><line class="st2" x1="2" y1="2" x2="62" y2="62" style="fill: none; stroke: #ffffff; stroke-width: 0.1; stroke-miterlimit: 10;"></line><rect x="10" y="10" class="st2" width="44" height="44" style="fill: none; stroke: #ffffff; stroke-width: 0.1; stroke-miterlimit: 10;"></rect><line class="st2" x1="62" y1="2" x2="2" y2="62" style="fill: none; stroke: #ffffff; stroke-width: 0.1; stroke-miterlimit: 10;"></line><line class="st2" x1="2" y1="32" x2="32" y2="2" style="fill: none; stroke: #ffffff; stroke-width: 0.1; stroke-miterlimit: 10;"></line><line class="st2" x1="32" y1="2" x2="62" y2="32" style="fill: none; stroke: #ffffff; stroke-width: 0.1; stroke-miterlimit: 10;"></line><line class="st2" x1="62" y1="32" x2="32" y2="62" style="fill: none; stroke: #ffffff; stroke-width: 0.1; stroke-miterlimit: 10;"></line><line class="st2" x1="32" y1="62" x2="2" y2="32" style="fill: none; stroke: #ffffff; stroke-width: 0.1; stroke-miterlimit: 10;"></line><circle class="st2" cx="32" cy="32" r="21" style="fill: none; stroke: #ffffff; stroke-width: 0.1; stroke-miterlimit: 10;"></circle></g></g><rect xmlns="http://www.w3.org/2000/svg" x="6" y="16" width="14" height="14"></rect><path xmlns="http://www.w3.org/2000/svg" d="M26.1,56H4V14h44v9.4c0.7,0.2,1.4,0.3,2,0.6V2H2v56h23.5L26.1,56z M47,4c0.6,0,1,0.4,1,1s-0.4,1-1,1s-1-0.4-1-1S46.4,4,47,4  z M43,4c0.6,0,1,0.4,1,1s-0.4,1-1,1s-1-0.4-1-1S42.4,4,43,4z M39,4c0.6,0,1,0.4,1,1s-0.4,1-1,1s-1-0.4-1-1S38.4,4,39,4z M36,8h12v4  H36V8z M4,8h30v4H4V8z"></path><rect xmlns="http://www.w3.org/2000/svg" x="22" y="16" width="24" height="2"></rect><rect xmlns="http://www.w3.org/2000/svg" x="22" y="20" width="22" height="2"></rect><rect xmlns="http://www.w3.org/2000/svg" x="6" y="36" width="16" height="2"></rect><rect xmlns="http://www.w3.org/2000/svg" x="6" y="44" width="24" height="2"></rect><path xmlns="http://www.w3.org/2000/svg" d="M60.5,52.8c-0.4-2.2-2.2-3.8-4.4-4.1l-5.5-0.6c-0.3-0.6-0.5-1.4-0.6-2.2V46c-0.9,1.3-2.4,2-4,2h-2c-1.6,0-3.1-0.7-4-2  l-0.1-0.1c-0.1,0.8-0.3,1.5-0.6,2.2l-5.7,0.6c-2.1,0.2-3.7,1.7-4.3,3.7L26.7,62h35.5L60.5,52.8z"></path><polygon xmlns="http://www.w3.org/2000/svg" points="27.3,52 6,52 6,54 26.8,54 "></polygon><path xmlns="http://www.w3.org/2000/svg" d="M30.1,48H6v2h22.2C28.7,49.2,29.3,48.5,30.1,48z"></path><path xmlns="http://www.w3.org/2000/svg" d="M38,45.6l0.3-1.6H32v2h5.9C37.9,45.9,37.9,45.7,38,45.6z"></path><path xmlns="http://www.w3.org/2000/svg" d="M36.9,40.5L36.8,40H6v2h31.3C37.1,41.5,37,41,36.9,40.5z"></path><polygon xmlns="http://www.w3.org/2000/svg" points="36.2,36.4 36,36 24,36 24,38 36.5,38 "></polygon><path xmlns="http://www.w3.org/2000/svg" d="M34.4,32H6v2h28.9C34.6,33.3,34.4,32.7,34.4,32z"></path><path xmlns="http://www.w3.org/2000/svg" d="M35.6,28H22v2h12.5C34.7,29.3,35.1,28.6,35.6,28z"></path><path xmlns="http://www.w3.org/2000/svg" d="M39.5,24H22v2h15.1C37.7,25.3,38.4,24.6,39.5,24z"></path><path xmlns="http://www.w3.org/2000/svg" d="M45.1,25c-5.1-0.3-6.5,2.2-6.9,3.3c-1.2,0.8-1.6,1.7-1.8,2.5c-0.2,1.3,0.3,2.7,0.9,3.6c1-1.5,2.6-3.3,4.6-3.4h0.3l0.3,0.2  c0,0,4.5,2.3,7.5,2.8c-4.8,0.5-8.2-1-8.2-1c-0.9,0.2-2.4,1.4-3.7,2.5l0.8,4.6c0.1,0.8,0.5,1.5,0.9,2.2l1.8,2.4  c0.6,0.8,1.5,1.2,2.4,1.2h2c0.9,0,1.8-0.4,2.4-1.2l1.8-2.4c0.5-0.6,0.8-1.4,0.9-2.2l0.8-4.7c0.6-0.6,2.1-2.3,2.1-4.5  C54,28.5,51.7,25.4,45.1,25z"></path></g><g id="SvgjsG1028" featureKey="text1" fill="#ffffff" transform="matrix(2.2777017466894933,0,0,2.2777017466894933,97.90889093092702,29.15376136668442)"><path d="M4.82 20 l-4.78 -13.22 l2.86 0 l2.62 7.38 c0.14 0.4 0.34 1.34 0.5 2.2 c0.18 -0.86 0.38 -1.82 0.54 -2.24 l1.7 -4.7 l-1 -2.64 l2.76 0 l2.68 7.38 c0.12 0.38 0.32 1.2 0.48 2 c0.16 -0.8 0.34 -1.64 0.48 -2.04 l2.48 -7.34 l2.64 0 l-4.52 13.22 l-2.12 0 l-2.64 -7.24 l-0.32 0.96 l-2.24 6.28 l-2.12 0 z M28.4 15.940000000000001 l-6.04 0 c0.08 1.42 0.52 2.42 2.04 2.42 c1.06 0 1.54 -0.42 1.8 -1.08 l2.2 0.46 c-0.5 1.66 -1.78 2.54 -4.04 2.54 c-2.96 0 -4.64 -1.56 -4.64 -4.92 c0 -2.46 1.1 -4.92 4.6 -4.92 c2.66 0 4.08 1.5 4.08 4.44 l0 1.06 z M24.28 12.36 c-1.08 0 -1.68 0.42 -1.88 1.82 l3.38 0 l0 -0.16 c0 -0.92 -0.36 -1.66 -1.5 -1.66 z M30.400000000000002 20 l0 -14.36 l2.5 0 l0 5.92 c0.4 -0.48 1.2 -1.12 2.46 -1.12 c2.94 0 4 2.3 4 4.74 c0 2.82 -1.36 5.1 -4.2 5.1 c-1.38 0 -2.12 -0.66 -2.64 -1.48 l-0.08 1.2 l-2.04 0 z M34.84 18.36 c1.22 0 1.9 -1.18 1.9 -3.1 c0 -1.8 -0.6 -2.9 -1.84 -2.9 c-1.34 0 -2 1.32 -2 3 c0 1.62 0.62 3 1.94 3 z  M44.50000000000001 20 l5.02 -13.22 l2.12 0 l5.34 13.22 l-2.8 0 l-1.14 -2.88 l-4.86 0 l-1.06 2.88 l-2.62 0 z M49.980000000000004 12.219999999999999 l-0.98 2.64 l3.14 0 l-1.04 -2.66 c-0.16 -0.36 -0.38 -1.08 -0.58 -1.78 c-0.2 0.74 -0.42 1.46 -0.54 1.8 z M58.160000000000004 24.56 l0 -13.84 l2.34 0 l0 1.06 c0.62 -0.84 1.52 -1.34 2.84 -1.34 c2.96 0 3.88 2.44 3.88 4.76 c0 2.86 -1.4 5.08 -4.42 5.08 c-0.96 0 -1.64 -0.32 -2.14 -0.82 l0 5.1 l-2.5 0 z M62.64 18.36 c1.24 0 1.96 -0.9 1.96 -3.14 c0 -1.86 -0.56 -2.86 -1.82 -2.86 c-1.54 0 -2.12 1.3 -2.12 3.04 c0 1.68 0.5 2.96 1.98 2.96 z M69.24 24.56 l0 -13.84 l2.34 0 l0 1.06 c0.62 -0.84 1.52 -1.34 2.84 -1.34 c2.96 0 3.88 2.44 3.88 4.76 c0 2.86 -1.4 5.08 -4.42 5.08 c-0.96 0 -1.64 -0.32 -2.14 -0.82 l0 5.1 l-2.5 0 z M73.72 18.36 c1.24 0 1.96 -0.9 1.96 -3.14 c0 -1.86 -0.56 -2.86 -1.82 -2.86 c-1.54 0 -2.12 1.3 -2.12 3.04 c0 1.68 0.5 2.96 1.98 2.96 z M79.72 17.48 l2.36 -0.38 c-0.1 0.66 0.44 1.26 1.64 1.26 c0.78 0 1.46 -0.28 1.46 -0.88 c0 -1.54 -5.16 -0.68 -5.16 -4.14 c0 -1.7 1.24 -2.9 3.78 -2.9 c2.18 0 3.98 0.94 3.66 2.7 l-2.5 0.44 c0.12 -0.52 -0.14 -1.22 -1.24 -1.22 c-0.78 0 -1.16 0.3 -1.16 0.86 c0 1.64 5.2 0.66 5.2 4.1 c0 1.98 -1.76 2.96 -4.04 2.96 c-2.2 0 -4.2 -0.86 -4 -2.8 z"></path></g><g id="SvgjsG1029" featureKey="text3" fill="#ffffff" transform="matrix(1.0500623942031826,0,0,1.0500623942031826,111.46690936511541,81.70938933794284)"><path d="M1.46 16.94 c0 -3.98 3.26 -7.12 7.28 -7.14 l0 0 c1.72 0 3.3 0.6 4.52 1.54 l0 0 c0.22 0.18 0.26 0.52 0.08 0.7 l0 0 c-0.16 0.24 -0.48 0.26 -0.68 0.1 l0 0 c-1.08 -0.84 -2.44 -1.36 -3.92 -1.36 l0 0 c-3.5 0 -6.3 2.74 -6.3 6.16 l0 0 c0 3.34 2.8 6.08 6.3 6.08 l0 0 c1.48 0 2.84 -0.48 3.88 -1.36 l0 0 c0.24 -0.16 0.56 -0.12 0.7 0.12 l0 0 c0.2 0.18 0.16 0.54 -0.06 0.7 l0 0 c-1.22 0.94 -2.8 1.52 -4.52 1.52 l0 0 c-4.02 0 -7.28 -3.16 -7.28 -7.06 l0 0 z M25.68 23.52 l0 -6.04 l-7.2 0 l0 6.04 c0 0.26 -0.22 0.48 -0.5 0.48 c-0.26 0 -0.48 -0.22 -0.48 -0.48 l0 -13.04 c0 -0.26 0.22 -0.48 0.48 -0.48 c0.28 0 0.5 0.22 0.5 0.48 l0 6.04 l7.2 0 l0 -6.04 c0 -0.26 0.22 -0.48 0.48 -0.48 c0.28 0 0.5 0.22 0.5 0.48 l0 13.04 c0 0.26 -0.22 0.48 -0.5 0.48 c-0.26 0 -0.48 -0.22 -0.48 -0.48 z M39.02 23.14 c-0.24 -0.46 -0.38 -1.12 -0.38 -2.3 c0 -1.02 -0.52 -1.66 -1.14 -2.12 c-0.62 -0.44 -1.36 -0.66 -1.62 -0.7 c-0.06 -0.02 -0.08 -0.04 -0.1 -0.04 l-3.4 0 l0 5.54 c0 0.26 -0.22 0.48 -0.5 0.48 c-0.26 0 -0.48 -0.22 -0.48 -0.48 l0 -13.04 c0 -0.24 0.2 -0.46 0.44 -0.48 l0.04 0 l0.06 0 l3.9 0 c2.2 0 3.98 1.78 3.98 4 c0 1.6 -0.94 2.98 -2.3 3.62 c0.06 0.04 0.12 0.06 0.2 0.1 c0.92 0.52 1.88 1.54 1.88 3.12 c0 0.82 0.08 1.32 0.18 1.62 c0.08 0.24 0.18 0.32 0.2 0.34 c0.22 -0.02 0.46 0.1 0.54 0.32 c0.06 0.26 -0.06 0.54 -0.32 0.64 c-0.02 0 -0.12 0.02 -0.24 0.02 l-0.04 0 c-0.26 0 -0.68 -0.2 -0.9 -0.64 z M38.86 14 c0 -1.68 -1.36 -3.02 -3.02 -3.02 l-3.46 0 l0 6.04 l3.36 0 l0.18 0 c1.62 -0.04 2.94 -1.38 2.94 -3.02 z M44.32 23.52 l0 -13.04 c0 -0.26 0.22 -0.48 0.48 -0.48 l0 0 c0.28 0 0.5 0.22 0.5 0.48 l0 0 l0 13.04 c0 0.26 -0.22 0.48 -0.5 0.48 l0 0 c-0.26 0 -0.48 -0.22 -0.48 -0.48 l0 0 z M49.7 22 c-0.18 -0.16 -0.2 -0.44 -0.06 -0.62 l0 0 c0.16 -0.2 0.44 -0.22 0.62 -0.06 l0 0 c1.04 0.84 2.78 1.82 4.6 1.8 l0 0 c1.22 0 2.32 -0.36 3.08 -0.92 l0 0 c0.78 -0.56 1.2 -1.3 1.2 -2.08 l0 0 c0 -0.8 -0.38 -1.4 -1.14 -1.92 l0 0 c-0.76 -0.5 -1.88 -0.88 -3.24 -1.14 l0 0 l-0.04 0 c-1.3 -0.24 -2.44 -0.6 -3.3 -1.18 l0 0 c-0.86 -0.56 -1.44 -1.4 -1.44 -2.44 l0 0 c0 -1.06 0.58 -1.98 1.46 -2.62 l0 0 c0.88 -0.64 2.06 -1.02 3.38 -1.02 l0 0 c1.84 0 3.22 0.9 4.32 1.62 l0 0 c0.2 0.14 0.26 0.4 0.12 0.62 l0 0 c-0.12 0.2 -0.4 0.26 -0.6 0.12 l0 0 c-1.1 -0.72 -2.3 -1.48 -3.84 -1.48 l0 0 c-1.14 0 -2.16 0.34 -2.86 0.84 l0 0 c-0.7 0.52 -1.1 1.2 -1.1 1.92 l0 0 c0.02 0.7 0.34 1.22 1.04 1.7 l0 0 c0.7 0.48 1.74 0.82 3 1.06 l0 0 l0.04 0 c1.4 0.26 2.64 0.66 3.56 1.28 l0 0 c0.92 0.6 1.54 1.52 1.54 2.64 l0 0 c0 1.12 -0.64 2.12 -1.58 2.8 l0 0 c-0.94 0.68 -2.2 1.1 -3.6 1.1 l0 0 c-2.14 -0.02 -4 -1.1 -5.16 -2.02 l0 0 z  M69.62 23.52 l0 -13.04 c0 -0.26 0.22 -0.48 0.48 -0.48 l0.06 0 l3.06 0 c1.92 0 3.48 1.56 3.48 3.5 c0 1.1 -0.54 2.08 -1.34 2.72 c1.58 0.54 2.74 2.02 2.74 3.78 c0 2.22 -1.8 4 -4 4 l-3.94 0 l-0.06 0 l-0.02 0 c-0.26 0 -0.46 -0.22 -0.46 -0.48 z M70.60000000000001 23.02 l3.5 0 c1.66 0 3 -1.34 3.02 -3.02 c-0.02 -1.66 -1.36 -3.02 -3.02 -3.02 l-3.5 0 l0 6.04 z M70.60000000000001 15.98 l2.62 0 c1.38 0 2.5 -1.12 2.5 -2.48 c0 -1.4 -1.12 -2.52 -2.5 -2.52 l-2.62 0 l0 5 z M81.5 23.52 l0 -13.04 c0 -0.26 0.22 -0.48 0.48 -0.48 l0.04 0 l7.16 0 c0.28 0 0.48 0.22 0.48 0.48 c0 0.28 -0.2 0.5 -0.48 0.5 l-6.7 0 l0 5.54 l5.86 0 c0.26 0 0.48 0.22 0.48 0.5 c0 0.26 -0.22 0.48 -0.48 0.48 l-5.86 0 l0 5.52 l6.7 0 c0.28 0 0.48 0.22 0.48 0.5 c0 0.26 -0.2 0.48 -0.48 0.48 l-7.14 0 l-0.06 0 l-0.04 0 c-0.24 -0.02 -0.44 -0.22 -0.44 -0.48 z M104.16 23.52 l0 -11.52 l-4.48 6.22 c-0.1 0.16 -0.26 0.22 -0.4 0.22 l-0.04 0 c-0.18 0 -0.32 -0.06 -0.42 -0.22 l-4.48 -6.2 l0 11.5 c0 0.26 -0.22 0.48 -0.48 0.48 c-0.28 0 -0.5 -0.22 -0.5 -0.48 l0 -12.96 c0 -0.16 0.08 -0.3 0.2 -0.38 c0 -0.02 0.02 -0.02 0.04 -0.04 c0.22 -0.14 0.52 -0.1 0.68 0.12 l4.98 6.9 l4.96 -6.9 c0.14 -0.22 0.46 -0.26 0.68 -0.12 c0.06 0.06 0.1 0.1 0.14 0.16 c0.04 0.08 0.08 0.18 0.08 0.26 l0 12.96 c0 0.26 -0.22 0.48 -0.48 0.48 c-0.28 0 -0.48 -0.22 -0.48 -0.48 z M110.38 23.52 l0 -13.04 c0 -0.26 0.22 -0.48 0.48 -0.48 l0 0 c0.28 0 0.5 0.22 0.5 0.48 l0 0 l0 13.04 c0 0.26 -0.22 0.48 -0.5 0.48 l0 0 c-0.26 0 -0.48 -0.22 -0.48 -0.48 l0 0 z M115.75999999999999 22 c-0.18 -0.16 -0.2 -0.44 -0.06 -0.62 l0 0 c0.16 -0.2 0.44 -0.22 0.62 -0.06 l0 0 c1.04 0.84 2.78 1.82 4.6 1.8 l0 0 c1.22 0 2.32 -0.36 3.08 -0.92 l0 0 c0.78 -0.56 1.2 -1.3 1.2 -2.08 l0 0 c0 -0.8 -0.38 -1.4 -1.14 -1.92 l0 0 c-0.76 -0.5 -1.88 -0.88 -3.24 -1.14 l0 0 l-0.04 0 c-1.3 -0.24 -2.44 -0.6 -3.3 -1.18 l0 0 c-0.86 -0.56 -1.44 -1.4 -1.44 -2.44 l0 0 c0 -1.06 0.58 -1.98 1.46 -2.62 l0 0 c0.88 -0.64 2.06 -1.02 3.38 -1.02 l0 0 c1.84 0 3.22 0.9 4.32 1.62 l0 0 c0.2 0.14 0.26 0.4 0.12 0.62 l0 0 c-0.12 0.2 -0.4 0.26 -0.6 0.12 l0 0 c-1.1 -0.72 -2.3 -1.48 -3.84 -1.48 l0 0 c-1.14 0 -2.16 0.34 -2.86 0.84 l0 0 c-0.7 0.52 -1.1 1.2 -1.1 1.92 l0 0 c0.02 0.7 0.34 1.22 1.04 1.7 l0 0 c0.7 0.48 1.74 0.82 3 1.06 l0 0 l0.04 0 c1.4 0.26 2.64 0.66 3.56 1.28 l0 0 c0.92 0.6 1.54 1.52 1.54 2.64 l0 0 c0 1.12 -0.64 2.12 -1.58 2.8 l0 0 c-0.94 0.68 -2.2 1.1 -3.6 1.1 l0 0 c-2.14 -0.02 -4 -1.1 -5.16 -2.02 l0 0 z M133.29999999999998 23.52 l0 -12.54 l-4.22 0 c-0.26 0 -0.48 -0.22 -0.48 -0.5 c0 -0.26 0.22 -0.48 0.48 -0.48 l9.4 0 c0.26 0 0.48 0.22 0.48 0.48 c0 0.28 -0.22 0.5 -0.48 0.5 l-4.22 0 l0 12.54 c0 0.26 -0.22 0.48 -0.48 0.48 s-0.48 -0.22 -0.48 -0.48 z M142.64000000000001 23.52 l0 -13.04 c0 -0.26 0.22 -0.48 0.48 -0.48 l0.04 0 l7.16 0 c0.28 0 0.48 0.22 0.48 0.48 c0 0.28 -0.2 0.5 -0.48 0.5 l-6.7 0 l0 5.54 l5.86 0 c0.26 0 0.48 0.22 0.48 0.5 c0 0.26 -0.22 0.48 -0.48 0.48 l-5.86 0 l0 5.52 l6.7 0 c0.28 0 0.48 0.22 0.48 0.5 c0 0.26 -0.2 0.48 -0.48 0.48 l-7.14 0 l-0.06 0 l-0.04 0 c-0.24 -0.02 -0.44 -0.22 -0.44 -0.48 z M161.84 23.14 c-0.24 -0.46 -0.38 -1.12 -0.38 -2.3 c0 -1.02 -0.52 -1.66 -1.14 -2.12 c-0.62 -0.44 -1.36 -0.66 -1.62 -0.7 c-0.06 -0.02 -0.08 -0.04 -0.1 -0.04 l-3.4 0 l0 5.54 c0 0.26 -0.22 0.48 -0.5 0.48 c-0.26 0 -0.48 -0.22 -0.48 -0.48 l0 -13.04 c0 -0.24 0.2 -0.46 0.44 -0.48 l0.04 0 l0.06 0 l3.9 0 c2.2 0 3.98 1.78 3.98 4 c0 1.6 -0.94 2.98 -2.3 3.62 c0.06 0.04 0.12 0.06 0.2 0.1 c0.92 0.52 1.88 1.54 1.88 3.12 c0 0.82 0.08 1.32 0.18 1.62 c0.08 0.24 0.18 0.32 0.2 0.34 c0.22 -0.02 0.46 0.1 0.54 0.32 c0.06 0.26 -0.06 0.54 -0.32 0.64 c-0.02 0 -0.12 0.02 -0.24 0.02 l-0.04 0 c-0.26 0 -0.68 -0.2 -0.9 -0.64 z M161.68 14 c0 -1.68 -1.36 -3.02 -3.02 -3.02 l-3.46 0 l0 6.04 l3.36 0 l0.18 0 c1.62 -0.04 2.94 -1.38 2.94 -3.02 z"></path></g>
			</g>
		</svg>
	